<svg width="12" height="12" viewBox="0 0 12 12" fill="none" xmlns="http://www.w3.org/2000/svg">
<g clip-path="url(#clip0_1659_786)">
<path d="M7.06127 6.00183L11.7801 1.28298C12.0733 0.99005 12.0733 0.514763 11.7801 0.221836C11.4869 -0.0713411 11.0122 -0.0713411 10.719 0.221836L6.00012 4.94069L1.28102 0.221836C0.987847 -0.0713411 0.51306 -0.0713411 0.219883 0.221836C-0.0732943 0.514763 -0.0732943 0.99005 0.219883 1.28298L4.93898 6.00183L0.219883 10.7207C-0.0732943 11.0136 -0.0732943 11.4889 0.219883 11.7818C0.366471 11.9282 0.558587 12.0015 0.750453 12.0015C0.942319 12.0015 1.13444 11.9282 1.28102 11.7816L6.00012 7.06272L10.719 11.7816C10.8656 11.9282 11.0577 12.0015 11.2495 12.0015C11.4414 12.0015 11.6335 11.9282 11.7801 11.7816C12.0733 11.4886 12.0733 11.0134 11.7801 10.7204L7.06127 6.00183Z" fill="#FFFFFF"/>
</g>
<defs>
<clipPath id="clip0_1659_786">
<rect width="12" height="12" fill="white"/>
</clipPath>
</defs>
</svg>
